<svg width="22" height="22" viewBox="0 0 22 22" fill="none" xmlns="http://www.w3.org/2000/svg">
<g clip-path="url(#clip0_128836_8937)">
<path d="M18.5445 10.9998C18.5444 6.83296 15.1658 3.45516 10.999 3.45516C6.83232 3.45531 3.45458 6.83306 3.45443 10.9998C3.45443 15.1666 6.83223 18.5451 10.999 18.5452C15.1659 18.5452 18.5445 15.1667 18.5445 10.9998ZM20.3778 10.9998C20.3778 16.1792 16.1785 20.3786 10.999 20.3786C5.81971 20.3784 1.62109 16.1791 1.62109 10.9998C1.62124 5.82053 5.8198 1.62198 10.999 1.62183C16.1784 1.62183 20.3777 5.82044 20.3778 10.9998Z" fill="#212121"/>
<path d="M20.8014 10.0834L20.8953 10.0878C21.3574 10.1349 21.718 10.5255 21.718 11C21.718 11.4746 21.3574 11.8651 20.8953 11.9122L20.8014 11.9167H17.4167C16.9104 11.9167 16.5 11.5063 16.5 11C16.5 10.4938 16.9104 10.0834 17.4167 10.0834H20.8014Z" fill="#212121"/>
<path d="M4.57674 10.0834L4.67074 10.0878C5.13282 10.1349 5.49341 10.5255 5.49341 11C5.49341 11.4746 5.13282 11.8651 4.67074 11.9122L4.57674 11.9167H1.19206C0.685796 11.9167 0.275391 11.5063 0.275391 11C0.275391 10.4938 0.685796 10.0834 1.19206 10.0834H4.57674Z" fill="#212121"/>
<path d="M10.084 4.57638V1.19169C10.084 0.68543 10.4944 0.275024 11.0007 0.275024C11.5069 0.275024 11.9173 0.68543 11.9173 1.19169V4.57638L11.9128 4.67037C11.8658 5.13246 11.4752 5.49304 11.0007 5.49304C10.5261 5.49304 10.1355 5.13246 10.0885 4.67037L10.084 4.57638Z" fill="#212121"/>
<path d="M10.084 20.8014V17.4167C10.084 16.9104 10.4944 16.5 11.0007 16.5C11.5069 16.5 11.9173 16.9104 11.9173 17.4167V20.8014C11.9173 21.3076 11.5069 21.718 11.0007 21.718C10.4944 21.718 10.084 21.3076 10.084 20.8014Z" fill="#212121"/>
<path d="M13.2923 11C13.2923 12.2657 12.2663 13.2917 11.0007 13.2917C9.735 13.2917 8.70898 12.2657 8.70898 11C8.70898 9.73439 9.735 8.70837 11.0007 8.70837C12.2663 8.70837 13.2923 9.73439 13.2923 11Z" fill="#6A26FD"/>
</g>
<defs>
<clipPath id="clip0_128836_8937">
<rect width="22" height="22" fill="white"/>
</clipPath>
</defs>
</svg>
