<svg width="22" height="22" viewBox="0 0 22 22" fill="none" xmlns="http://www.w3.org/2000/svg">
<g clip-path="url(#clip0_128836_8933)">
<path d="M17.4167 8.25C17.4167 4.70617 14.5438 1.83333 11 1.83333C7.45617 1.83333 4.58333 4.70617 4.58333 8.25C4.58333 11.7938 7.45617 14.6667 11 14.6667V16.5C6.44365 16.5 2.75 12.8063 2.75 8.25C2.75 3.69365 6.44365 0 11 0C15.5563 0 19.25 3.69365 19.25 8.25C19.25 12.8063 15.5563 16.5 11 16.5V14.6667C14.5438 14.6667 17.4167 11.7938 17.4167 8.25Z" fill="#212121"/>
<path d="M12.834 8.25004C12.834 7.23752 12.0132 6.41671 11.0007 6.41671C9.98813 6.41671 9.16732 7.23752 9.16732 8.25004C9.16732 9.26256 9.98813 10.0834 11.0007 10.0834V11.9167C8.97561 11.9167 7.33398 10.2751 7.33398 8.25004C7.33398 6.225 8.97561 4.58337 11.0007 4.58337C13.0257 4.58337 14.6673 6.225 14.6673 8.25004C14.6673 10.2751 13.0257 11.9167 11.0007 11.9167V10.0834C12.0132 10.0834 12.834 9.26256 12.834 8.25004Z" fill="#6A26FD"/>
<path d="M15.4537 14.1949C17.0306 16.823 15.1375 20.1667 12.0726 20.1667H9.92956C6.86471 20.1667 4.9716 16.823 6.54846 14.1949L8.1204 15.1385C7.27686 16.5446 8.2898 18.3334 9.92956 18.3334H12.0726C13.7124 18.3334 14.7253 16.5446 13.8818 15.1385L15.4537 14.1949Z" fill="#212121"/>
<path d="M10.084 21.0834V19.25C10.084 18.7438 10.4944 18.3334 11.0007 18.3334C11.5069 18.3334 11.9173 18.7438 11.9173 19.25V21.0834C11.9173 21.5896 11.5069 22 11.0007 22C10.4944 22 10.084 21.5896 10.084 21.0834Z" fill="#212121"/>
</g>
<defs>
<clipPath id="clip0_128836_8933">
<rect width="22" height="22" fill="white"/>
</clipPath>
</defs>
</svg>
