<svg width="22" height="22" viewBox="0 0 22 22" fill="none" xmlns="http://www.w3.org/2000/svg">
<path d="M6.41602 16.5V3.20829C6.41602 2.70203 6.82642 2.29163 7.33268 2.29163C7.83894 2.29163 8.24935 2.70203 8.24935 3.20829V16.5C8.24935 17.0062 7.83894 17.4166 7.33268 17.4166C6.82642 17.4166 6.41602 17.0062 6.41602 16.5Z" fill="#6A26FD"/>
<path d="M13.75 19.25V5.50004C13.75 4.99378 14.1604 4.58337 14.6667 4.58337C15.1729 4.58337 15.5833 4.99378 15.5833 5.50004V19.25C15.5833 19.7563 15.1729 20.1667 14.6667 20.1667C14.1604 20.1667 13.75 19.7563 13.75 19.25Z" fill="#6A26FD"/>
<path d="M20.1667 15.4356V4.99245C20.1666 4.28866 19.4063 3.84747 18.7952 4.19663L15.9736 5.80885C15.1754 6.26498 14.2017 6.2924 13.3794 5.88136L7.80062 3.09197C7.52655 2.95507 7.20188 2.96414 6.93587 3.11614L2.29525 5.76767C2.00964 5.93088 1.83333 6.23543 1.83333 6.56439V17.0076C1.83338 17.7114 2.59367 18.1526 3.20475 17.8034L6.02637 16.1912C6.82459 15.735 7.79827 15.7076 8.62061 16.1187L14.1994 18.9081C14.4735 19.045 14.7981 19.0359 15.0641 18.8839L19.7048 16.2324C19.9904 16.0691 20.1667 15.7646 20.1667 15.4356ZM22 15.4356C22 16.4225 21.4711 17.3344 20.6143 17.824L15.9736 20.4755C15.1754 20.9316 14.2017 20.9591 13.3794 20.548L7.80062 17.7586C7.52655 17.6217 7.20188 17.6308 6.93587 17.7828L4.11426 19.395C2.28098 20.4426 4.65898e-05 19.119 0 17.0076V6.56439C0 5.57753 0.528911 4.66566 1.38574 4.17604L6.02637 1.52451C6.82459 1.06838 7.79827 1.04096 8.62061 1.452L14.1994 4.24139C14.4735 4.37829 14.7981 4.36922 15.0641 4.21722L17.8857 2.60499C19.719 1.55743 22 2.88098 22 4.99245V15.4356Z" fill="#212121"/>
</svg>
