<svg width="28" height="28" viewBox="0 0 28 28" fill="none" xmlns="http://www.w3.org/2000/svg">
<rect width="28" height="28" rx="14" fill="#FD2A2A"/>
<g clip-path="url(#clip0_128435_1396)">
<path d="M16.625 9.22754C16.0876 9.23584 15.5619 9.38478 15.101 9.65931C14.6401 9.93385 14.2603 10.3243 14 10.7911C13.7397 10.3243 13.3599 9.93385 12.899 9.65931C12.4381 9.38478 11.9124 9.23584 11.375 9.22754C10.5183 9.26449 9.71109 9.63656 9.1298 10.2625C8.54852 10.8884 8.24039 11.7172 8.27273 12.5679C8.27273 14.7224 10.557 17.0753 12.4727 18.6707C12.9005 19.0275 13.4413 19.2231 14 19.2231C14.5587 19.2231 15.0995 19.0275 15.5273 18.6707C17.443 17.0753 19.7273 14.7224 19.7273 12.5679C19.7596 11.7172 19.4515 10.8884 18.8702 10.2625C18.2889 9.63656 17.4817 9.26449 16.625 9.22754Z" fill="white"/>
</g>
<defs>
<clipPath id="clip0_128435_1396">
<rect width="11.4545" height="11.4545" fill="white" transform="translate(8.27272 8.27295)"/>
</clipPath>
</defs>
</svg>
