<svg width="20" height="20" viewBox="0 0 20 20" fill="none" xmlns="http://www.w3.org/2000/svg">
<g clip-path="url(#clip0_128741_16084)">
<path d="M19.168 2.5V5.83301L17.501 7.08301H15.001C14.3065 6.80521 12.918 6.16632 12.918 5.83301V3.33301C12.9183 2.99922 13.4733 1.80537 13.751 1.25L16.668 0.833008L19.168 2.5ZM16.1494 2.97656C16.0489 2.78563 15.7849 2.78545 15.6846 2.97656L15.4824 3.3623C15.4443 3.43494 15.377 3.48673 15.2988 3.50195L14.8838 3.58203C14.6778 3.62216 14.5963 3.88358 14.7402 4.04199L15.0303 4.36133C15.0848 4.42136 15.1107 4.50401 15.1006 4.58594L15.0459 5.02246C15.0193 5.2383 15.2327 5.3997 15.4219 5.30664L15.8037 5.11816C15.8756 5.08269 15.9594 5.08269 16.0312 5.11816L16.4121 5.30664C16.6013 5.40006 16.8157 5.23841 16.7891 5.02246L16.7344 4.58594C16.7242 4.50399 16.7501 4.42137 16.8047 4.36133L17.0947 4.04199C17.2385 3.88358 17.1571 3.62219 16.9512 3.58203L16.5361 3.50195C16.458 3.48673 16.3906 3.43494 16.3525 3.3623L16.1494 2.97656Z" fill="#9D70FF"/>
<path d="M10 0C11.6362 0 13.1793 0.395461 14.5426 1.09212C13.9566 1.33844 13.4564 1.74803 13.0973 2.26318C12.1396 1.87943 11.0948 1.66667 10 1.66667C5.39763 1.66667 1.66667 5.39763 1.66667 10C1.66667 12.8053 3.05422 15.285 5.17904 16.7952L3.68734 18.0387C3.67574 18.0484 3.66616 18.0593 3.65804 18.0705L3.31299 18.3333H10C14.6024 18.3333 18.3333 14.6024 18.3333 10C18.3333 8.90482 18.12 7.85982 17.736 6.90186C18.2513 6.54269 18.6607 6.04282 18.9071 5.45654C19.604 6.82017 20 8.36345 20 10C20 15.5228 15.5228 20 10 20H1.32894C0.370799 19.9997 -0.038391 18.782 0.725098 18.2031L2.63102 16.7586C0.997694 14.9787 0 12.6061 0 10C0 4.47715 4.47715 0 10 0Z" fill="#212121"/>
<path d="M18.3327 4.16667C18.3327 2.78595 17.2134 1.66667 15.8327 1.66667C14.452 1.66667 13.3327 2.78595 13.3327 4.16667C13.3327 5.54738 14.452 6.66667 15.8327 6.66667C17.2134 6.66667 18.3327 5.54738 18.3327 4.16667ZM19.9993 4.16667C19.9993 6.46785 18.1339 8.33333 15.8327 8.33333C13.5315 8.33333 11.666 6.46785 11.666 4.16667C11.666 1.86548 13.5315 0 15.8327 0C18.1339 0 19.9993 1.86548 19.9993 4.16667Z" fill="#212121"/>
<path d="M6.41602 8.75C7.1063 8.75009 7.66602 9.3097 7.66602 10C7.66602 10.6903 7.1063 11.2499 6.41602 11.25C5.72566 11.25 5.16602 10.6904 5.16602 10C5.16602 9.30964 5.72566 8.75 6.41602 8.75ZM10.166 8.75C10.8563 8.75009 11.416 9.3097 11.416 10C11.416 10.6903 10.8563 11.2499 10.166 11.25C9.47566 11.25 8.91602 10.6904 8.91602 10C8.91602 9.30964 9.47566 8.75 10.166 8.75ZM13.916 8.75C14.6063 8.75009 15.166 9.3097 15.166 10C15.166 10.6903 14.6063 11.2499 13.916 11.25C13.2257 11.25 12.666 10.6904 12.666 10C12.666 9.30964 13.2257 8.75 13.916 8.75Z" fill="#FF4343"/>
</g>
<defs>
<clipPath id="clip0_128741_16084">
<rect width="20" height="20" fill="white"/>
</clipPath>
</defs>
</svg>
