<svg width="20" height="20" viewBox="0 0 20 20" fill="none" xmlns="http://www.w3.org/2000/svg">
<g clip-path="url(#clip0_128741_16093)">
<path d="M2.08333 7.50004L6.25 5.83337L5.83333 8.33337L4.16667 11.6667H2.5L1.25 10.8334V9.58337L2.08333 7.50004Z" fill="#9D70FF"/>
<path d="M13.75 12.9166L8.75 15.8333V17.9166L10.4167 19.1666L12.0833 17.9166L13.75 15V12.9166Z" fill="#9D70FF"/>
<path d="M4.16732 15.4167L2.50065 15L0.833984 17.5L1.66732 19.1667L3.75065 18.3333L5.00065 17.0833L4.16732 15.4167Z" fill="#FF4343"/>
<path d="M1.56546 14.8983C0.841432 15.898 0.321785 17.0308 0.0362899 18.2317C-0.018245 18.4707 -0.0112181 18.7197 0.0567128 18.9554C0.124644 19.191 0.251256 19.4055 0.424697 19.5789C0.598138 19.7523 0.812734 19.8788 1.04839 19.9466C1.28405 20.0144 1.53307 20.0213 1.77212 19.9667C2.97116 19.6807 4.10214 19.1614 5.10046 18.4383C5.56989 17.9695 5.83388 17.3335 5.83435 16.6701C5.83482 16.0067 5.57173 15.3703 5.10296 14.9008C4.63419 14.4314 3.99813 14.1674 3.33472 14.1669C2.67131 14.1665 2.03489 14.4296 1.56546 14.8983ZM3.92212 17.2558C3.25046 17.686 2.5209 18.0182 1.75546 18.2425C1.98002 17.4772 2.31224 16.7476 2.74212 16.0758C2.89929 15.924 3.10979 15.84 3.32829 15.8419C3.54679 15.8438 3.7558 15.9315 3.91031 16.086C4.06481 16.2405 4.15245 16.4495 4.15435 16.668C4.15625 16.8865 4.07225 17.097 3.92046 17.2542L3.92212 17.2558ZM14.9996 7.08332C14.9996 7.63585 14.7801 8.16576 14.3894 8.55646C13.9987 8.94716 13.4688 9.16665 12.9163 9.16665C12.3638 9.16665 11.8339 8.94716 11.4432 8.55646C11.0525 8.16576 10.833 7.63585 10.833 7.08332C10.833 6.53078 11.0525 6.00088 11.4432 5.61018C11.8339 5.21948 12.3638 4.99999 12.9163 4.99999C13.4688 4.99999 13.9987 5.21948 14.3894 5.61018C14.7801 6.00088 14.9996 6.53078 14.9996 7.08332ZM17.4763 -1.60773e-05C15.4932 -0.0118049 13.534 0.43359 11.7509 1.30159C9.96776 2.16959 8.40866 3.43685 7.19462 5.00499C5.87057 5.05076 4.57193 5.38132 3.38712 5.97415C2.01314 6.60684 0.89149 7.68271 0.202123 9.02915C0.0403478 9.40479 -0.0253185 9.81481 0.011054 10.2222C0.0474266 10.6296 0.184692 11.0215 0.410457 11.3625C0.638376 11.7119 0.949862 11.9989 1.3167 12.1975C1.68354 12.3961 2.09413 12.5001 2.51129 12.5H4.58296C5.35536 12.5037 6.09506 12.8122 6.64124 13.3584C7.18741 13.9045 7.4959 14.6443 7.49962 15.4167V17.4883C7.49933 17.9053 7.60304 18.3158 7.80137 18.6826C7.99969 19.0495 8.28637 19.361 8.63546 19.5892C8.97649 19.8149 9.36839 19.9522 9.77576 19.9886C10.1831 20.0249 10.5932 19.9593 10.9688 19.7975C12.3152 19.1081 13.3911 17.9865 14.0238 16.6125C14.6166 15.4277 14.9472 14.129 14.993 12.805C16.5636 11.5879 17.8324 10.0249 18.7007 8.23766C19.5691 6.4504 20.0135 4.48697 19.9996 2.49998C19.9986 2.16999 19.9325 1.84343 19.8051 1.53904C19.6776 1.23465 19.4914 0.958403 19.2569 0.726147C19.0225 0.493891 18.7446 0.310191 18.439 0.185581C18.1334 0.0609697 17.8063 -0.00210126 17.4763 -1.60773e-05ZM3.62129 10.8333H2.51129C2.37037 10.8344 2.23148 10.7997 2.1076 10.7325C1.98373 10.6654 1.87891 10.5679 1.80296 10.4492C1.72834 10.3389 1.68273 10.2116 1.67035 10.0791C1.65797 9.94651 1.67922 9.81298 1.73212 9.69082C2.26908 8.70675 3.11266 7.92491 4.13462 7.46415C4.66265 7.1994 5.22013 6.998 5.79546 6.86415C4.96715 8.12778 4.24016 9.45498 3.62129 10.8333ZM12.538 15.865C12.0772 16.8867 11.2957 17.7302 10.3121 18.2675C10.1898 18.3205 10.0562 18.3417 9.92346 18.3294C9.79076 18.317 9.66333 18.2713 9.55296 18.1967C9.43425 18.1207 9.33675 18.0159 9.26957 17.892C9.20238 17.7681 9.16771 17.6292 9.16879 17.4883V16.3783C10.5471 15.7594 11.8743 15.0325 13.138 14.2042C13.0033 14.7796 12.8011 15.3371 12.5355 15.865H12.538ZM12.6505 12.515C11.5228 13.2982 10.3323 13.9869 9.09129 14.5742C8.92182 13.6642 8.48083 12.8269 7.82634 12.1724C7.17186 11.518 6.33456 11.077 5.42462 10.9075C6.01228 9.66754 6.70128 8.47823 7.48462 7.35165C10.2913 3.43665 13.1996 1.78915 17.4996 1.66665C17.7167 1.66657 17.9252 1.75115 18.0808 1.90242C18.2364 2.05369 18.3269 2.25971 18.333 2.47665C18.2105 6.79999 16.563 9.70832 12.648 12.515H12.6505Z" fill="#212121"/>
</g>
<defs>
<clipPath id="clip0_128741_16093">
<rect width="20" height="20" fill="white"/>
</clipPath>
</defs>
</svg>
