<svg xmlns="http://www.w3.org/2000/svg" width="22" height="22" viewBox="0 0 22 22" fill="none">
<g clip-path="url(#clip0_128679_3629)">
<path d="M16.1562 10.5625C16.1562 14.5 11 17.875 11 17.875C11 17.875 5.84375 14.5 5.84375 10.5625C5.84375 9.21984 6.387 7.93217 7.35398 6.98277C8.32097 6.03337 9.63248 5.5 11 5.5C12.3675 5.5 13.679 6.03337 14.646 6.98277C15.613 7.93217 16.1562 9.21984 16.1562 10.5625Z" fill="#6A26FD" stroke="#6A26FD" stroke-width="2" stroke-linecap="round" stroke-linejoin="round"/><path d="M20.5086 7.33261C20.9253 7.17188 21.3965 7.37878 21.5261 7.80617C22.2323 10.1333 22.1493 12.6375 21.2764 14.9236C20.3071 17.4624 18.4323 19.5525 16.0135 20.7911C13.5946 22.0297 10.8028 22.329 8.17634 21.6314C5.54986 20.9338 3.27456 19.2887 1.78902 17.0131C0.303478 14.7376 -0.287147 11.9927 0.130991 9.30747C0.549129 6.62229 1.94643 4.18693 4.05356 2.47082C6.16069 0.754704 8.82848 -0.120681 11.5427 0.0133963C13.9868 0.13413 16.3128 1.0657 18.1591 2.64849C18.4982 2.93918 18.498 3.45379 18.1832 3.77061C17.8684 4.08744 17.3584 4.08601 17.0157 3.79964C15.4557 2.49627 13.5078 1.72984 11.4629 1.62882C9.14777 1.51446 6.87224 2.26113 5.07494 3.72492C3.27763 5.1887 2.08578 7.26597 1.72913 9.55633C1.37247 11.8467 1.87625 14.188 3.14337 16.129C4.41048 18.07 6.35123 19.4732 8.59152 20.0682C10.8318 20.6632 13.2131 20.4079 15.2763 19.3514C17.3395 18.295 18.9386 16.5122 19.7654 14.3467C20.4957 12.434 20.5778 10.3423 20.0122 8.38979C19.888 7.96079 20.0919 7.49333 20.5086 7.33261Z" fill="#212121"/>
<path d="M10.4886 7.87829C10.7094 7.45724 11.2906 7.45724 11.5114 7.87829L11.9564 8.72702C12.0402 8.88681 12.1886 8.99896 12.3606 9.03246L13.2742 9.2104C13.7274 9.29868 13.907 9.87368 13.5902 10.2222L12.9517 10.9247C12.8315 11.0569 12.7748 11.2384 12.7973 11.4189L12.9169 12.3776C12.9763 12.8532 12.506 13.2086 12.0894 13.0029L11.2498 12.5883C11.0917 12.5103 10.9083 12.5103 10.7502 12.5883L9.91055 13.0029C9.494 13.2086 9.02374 12.8532 9.08308 12.3776L9.20268 11.4189C9.2252 11.2384 9.16851 11.0569 9.0483 10.9247L8.40976 10.2222C8.09299 9.87368 8.27261 9.29868 8.72583 9.2104L9.6394 9.03246C9.81139 8.99896 9.9598 8.88681 10.0436 8.72702L10.4886 7.87829Z" fill="#FFFFFF"/>
</g>
<defs>
<clipPath id="clip0_128679_3629">
<rect width="22" height="22" fill="#212121"/>
</clipPath>
</defs>
</svg>