<svg width="21" height="20" viewBox="0 0 21 20" fill="none" xmlns="http://www.w3.org/2000/svg">
<g clip-path="url(#clip0_128741_16090)">
<path d="M12 19.1667V12.0834V10.8334L14.9167 8.33337L16.1667 9.58337C16.5 9.91671 16.3056 11.3889 16.1667 12.0834L18.6667 12.5C19.2222 12.6389 20.3333 13 20.3333 13.3334C20.3333 13.75 19.5 17.0834 19.0833 17.5C18.75 17.8334 17.5556 18.75 17 19.1667H12Z" fill="#9D70FF"/>
<path d="M10.75 0C16.2728 0 20.75 4.47715 20.75 10C20.75 11.5403 20.4004 12.9986 19.7783 14.3018L19.9167 13.75L18.6382 12.6847C18.9249 11.842 19.0833 10.9397 19.0833 10C19.0833 5.39763 15.3524 1.66667 10.75 1.66667C6.14763 1.66667 2.41667 5.39763 2.41667 10C2.41667 14.3108 5.68992 17.8565 9.88656 18.2886L10.75 19.5833L14.1549 19.4035C13.092 19.7884 11.9458 20 10.75 20C5.22715 20 0.75 15.5228 0.75 10C0.75 4.47715 5.22715 0 10.75 0Z" fill="#212121"/>
<path d="M8.04186 7.9134C8.29313 7.55666 8.69284 7.51334 8.99645 7.88329C9.91422 9.0019 11.3464 8.98872 12.259 7.87352C12.5425 7.52789 12.9439 7.56299 13.1908 7.89305C13.4551 8.24759 13.4385 8.72806 13.1314 9.09911C12.4343 9.94014 11.6021 10.374 10.6338 10.3751C9.66632 10.3773 8.83217 9.95101 8.12813 9.11864C7.82293 8.75758 7.79339 8.26568 8.04186 7.9134ZM7.35501 4.02831C7.54649 3.74122 7.93455 3.66358 8.22171 3.85497L9.68005 4.82746C9.8538 4.94336 9.95831 5.13862 9.95837 5.34748C9.95828 5.55632 9.8538 5.75163 9.68005 5.8675L8.22171 6.83918C7.93451 7.03065 7.54648 6.95305 7.35501 6.66584C7.1638 6.37866 7.24125 5.99055 7.52835 5.79914L8.20625 5.34667L7.52835 4.89501C7.24121 4.70352 7.16356 4.31549 7.35501 4.02831ZM13.3617 3.85497C13.6488 3.66358 14.0369 3.74122 14.2284 4.02831C14.4198 4.31549 14.3422 4.70352 14.055 4.89501L13.3771 5.34667L14.055 5.79914C14.3422 5.99055 14.4196 6.37866 14.2284 6.66584C14.0369 6.95305 13.6489 7.03065 13.3617 6.83918L11.9034 5.8675C11.7296 5.75163 11.6251 5.55632 11.625 5.34748C11.6251 5.13862 11.7296 4.94336 11.9034 4.82746L13.3617 3.85497Z" fill="#212121"/>
<path d="M14.4753 7.83325C15.634 7.83325 16.6107 8.66711 16.8109 9.78638L16.841 10.0142L16.9321 11.1389L17.9144 11.1471C19.8411 11.1624 21.2241 13.0088 20.6968 14.8621L19.8423 17.865C19.4856 19.1186 18.3397 19.9833 17.0363 19.9833H10.6667C9.05584 19.9833 7.75 18.6775 7.75 17.0667V14.0629C7.75021 12.4644 9.03733 11.1642 10.6357 11.1471L11.4072 11.1381L12.3317 9.18986L12.4098 9.03768C12.8285 8.29725 13.616 7.83335 14.4753 7.83325ZM9.41667 17.0667C9.41667 17.7139 9.90857 18.2461 10.5389 18.3101L10.6667 18.3167H17.0363C17.5599 18.3167 18.0246 17.9911 18.2065 17.5077L18.2391 17.4084L19.0936 14.4055C19.3053 13.6609 18.7974 12.9194 18.0527 12.8243L17.9014 12.8137L16.5382 12.8031C15.9315 12.7984 15.4222 12.3599 15.3175 11.7737L15.3021 11.6541L15.1792 10.1493C15.1494 9.78264 14.8432 9.49992 14.4753 9.49992C14.2025 9.50002 13.9541 9.65711 13.8372 9.90356L12.8013 12.0878C12.5965 12.5197 12.1635 12.7972 11.6855 12.8023L10.6536 12.8137C9.96868 12.8211 9.41687 13.378 9.41667 14.0629V17.0667Z" fill="#212121"/>
<path d="M12.6901 11.8335V18.6499H11.0234V11.8335H12.6901Z" fill="#212121"/>
</g>
<defs>
<clipPath id="clip0_128741_16090">
<rect width="20" height="20" fill="white" transform="translate(0.75)"/>
</clipPath>
</defs>
</svg>
