<svg width="21" height="20" viewBox="0 0 21 20" fill="none" xmlns="http://www.w3.org/2000/svg">
<g clip-path="url(#clip0_128741_16087)">
<path d="M6.34863 4.09184H6.08333C3.78215 4.09184 1.91667 5.95732 1.91667 8.2585V14.0747C1.91673 16.3759 3.78219 18.2414 6.08333 18.2414H14.4167C16.7178 18.2414 18.5833 16.3759 18.5833 14.0747V8.2585C18.5833 6.18077 17.0626 4.45804 15.0734 4.14311L15.25 3.20723L14.5151 2.4268C17.6914 2.47938 20.25 5.06974 20.25 8.2585V14.0747C20.2499 17.2964 17.6383 19.9081 14.4167 19.9081H6.08333C2.86171 19.9081 0.250063 17.2964 0.25 14.0747V8.2585C0.25 5.03684 2.86167 2.42517 6.08333 2.42517H7.20475L6.34863 4.09184Z" fill="#212121"/>
<path d="M15.2493 9.16662L15.3348 9.17069C15.7549 9.21347 16.0827 9.56856 16.0827 9.99996C16.0827 10.4314 15.7549 10.7864 15.3348 10.8292L15.2493 10.8333L5.24935 10.8333C4.78911 10.8333 4.41602 10.4602 4.41602 9.99996C4.41602 9.53972 4.78911 9.16663 5.24935 9.16663L15.2493 9.16662Z" fill="#212121"/>
<path d="M10.249 1.25L14.416 2.91699L15.249 7.5L12.749 10L7.74902 9.58301L6.08203 7.5V5.83301L8.58203 1.25H10.249ZM12.7559 4.54102C12.5023 4.30713 12.1071 4.32276 11.873 4.57617L10.332 6.24414L9.45801 5.29883L9.41211 5.25391C9.17491 5.04411 8.81298 5.04345 8.5752 5.2627C8.32161 5.49677 8.30606 5.89186 8.54004 6.14551L9.56738 7.25879C9.97984 7.70538 10.6852 7.70546 11.0977 7.25879L12.791 5.42383C13.0251 5.17025 13.0093 4.77516 12.7559 4.54102Z" fill="#9D70FF"/>
<path d="M6.98334 1.91617C7.87525 0.305709 9.90417 -0.276982 11.5147 0.614904L14.3834 2.20426L14.5315 2.29052C16.0285 3.22197 16.5484 5.17475 15.6846 6.73468L14.0652 9.65867L13.9805 9.80434C13.7144 10.2321 13.3626 10.5777 12.9608 10.833H9.43455L6.91417 9.43731L6.69606 9.31606L6.54714 9.22979C5.09827 8.32851 4.56525 6.47052 5.31502 4.93781L5.39478 4.78563L6.98334 1.91617ZM10.7074 2.07323C9.9022 1.62734 8.88773 1.91843 8.4417 2.72346L6.85232 5.59292C6.40664 6.3981 6.69824 7.41266 7.50337 7.85854L7.72147 7.97898L10.4274 9.47719C11.2023 9.90594 12.1785 9.62608 12.6076 8.85138L14.2263 5.92739C14.6722 5.12228 14.381 4.10782 13.576 3.66177L10.7074 2.07323Z" fill="#212121"/>
<path d="M9.78508 12.3705C9.98579 11.9877 10.5142 11.9877 10.7149 12.3705L11.1195 13.142C11.1956 13.2873 11.3306 13.3892 11.4869 13.4197L12.3174 13.5815C12.7294 13.6617 12.8927 14.1844 12.6048 14.5013L12.0243 15.1399C11.915 15.2601 11.8635 15.4251 11.8839 15.5892L11.9927 16.4607C12.0466 16.8931 11.6191 17.2162 11.2404 17.0292L10.4771 16.6523C10.3334 16.5814 10.1666 16.5814 10.0229 16.6523L9.25959 17.0292C8.88091 17.2162 8.4534 16.8931 8.50734 16.4607L8.61607 15.5892C8.63654 15.4251 8.58501 15.2601 8.47572 15.1399L7.89524 14.5013C7.60726 14.1844 7.77055 13.6617 8.18257 13.5815L9.01309 13.4197C9.16945 13.3892 9.30436 13.2873 9.38053 13.142L9.78508 12.3705Z" fill="#FF4343"/>
</g>
<defs>
<clipPath id="clip0_128741_16087">
<rect width="20" height="20" fill="white" transform="translate(0.25)"/>
</clipPath>
</defs>
</svg>
