<!-- <svg width="50" height="50" viewBox="0 0 50 50" fill="none" xmlns="http://www.w3.org/2000/svg">
<g filter="url(#filter0_d_128679_3627)">
<rect x="6" y="6" width="38" height="38" rx="19" fill="#6A26FD" shape-rendering="crispEdges"/>
<g clip-path="url(#clip0_128679_3627)">
<path d="M30.1562 24.5625C30.1562 28.5 25 31.875 25 31.875C25 31.875 19.8438 28.5 19.8438 24.5625C19.8438 23.2198 20.387 21.9322 21.354 20.9828C22.321 20.0334 23.6325 19.5 25 19.5C26.3675 19.5 27.679 20.0334 28.646 20.9828C29.613 21.9322 30.1562 23.2198 30.1562 24.5625Z" fill="white" stroke="white" stroke-width="2" stroke-linecap="round" stroke-linejoin="round"/>
<path d="M34.5086 21.3326C34.9253 21.1719 35.3965 21.3788 35.5261 21.8062C36.2323 24.1333 36.1493 26.6375 35.2764 28.9236C34.3071 31.4624 32.4323 33.5525 30.0135 34.7911C27.5946 36.0297 24.8028 36.329 22.1763 35.6314C19.5499 34.9338 17.2746 33.2887 15.789 31.0131C14.3035 28.7376 13.7129 25.9927 14.131 23.3075C14.5491 20.6223 15.9464 18.1869 18.0536 16.4708C20.1607 14.7547 22.8285 13.8793 25.5427 14.0134C27.9868 14.1341 30.3128 15.0657 32.1591 16.6485C32.4982 16.9392 32.498 17.4538 32.1832 17.7706C31.8684 18.0874 31.3584 18.086 31.0157 17.7996C29.4557 16.4963 27.5078 15.7298 25.4629 15.6288C23.1478 15.5145 20.8722 16.2611 19.0749 17.7249C17.2776 19.1887 16.0858 21.266 15.7291 23.5563C15.3725 25.8467 15.8763 28.188 17.1434 30.129C18.4105 32.07 20.3512 33.4732 22.5915 34.0682C24.8318 34.6632 27.2131 34.4079 29.2763 33.3514C31.3395 32.295 32.9386 30.5122 33.7654 28.3467C34.4957 26.434 34.5778 24.3423 34.0122 22.3898C33.888 21.9608 34.0919 21.4933 34.5086 21.3326Z" fill="white"/>
<path d="M24.4886 21.8783C24.7094 21.4572 25.2906 21.4572 25.5114 21.8783L25.9564 22.727C26.0402 22.8868 26.1886 22.999 26.3606 23.0325L27.2742 23.2104C27.7274 23.2987 27.907 23.8737 27.5902 24.2222L26.9517 24.9247C26.8315 25.0569 26.7748 25.2384 26.7973 25.4189L26.9169 26.3776C26.9763 26.8532 26.506 27.2086 26.0894 27.0029L25.2498 26.5883C25.0917 26.5103 24.9083 26.5103 24.7502 26.5883L23.9106 27.0029C23.494 27.2086 23.0237 26.8532 23.0831 26.3776L23.2027 25.4189C23.2252 25.2384 23.1685 25.0569 23.0483 24.9247L22.4098 24.2222C22.093 23.8737 22.2726 23.2987 22.7258 23.2104L23.6394 23.0325C23.8114 22.999 23.9598 22.8868 24.0436 22.727L24.4886 21.8783Z" fill="#6A26FD"/>
</g>
</g>
<defs>
<filter id="filter0_d_128679_3627" x="0" y="0" width="50" height="50" filterUnits="userSpaceOnUse" color-interpolation-filters="sRGB">
<feFlood flood-opacity="0" result="BackgroundImageFix"/>
<feColorMatrix in="SourceAlpha" type="matrix" values="0 0 0 0 0 0 0 0 0 0 0 0 0 0 0 0 0 0 127 0" result="hardAlpha"/>
<feOffset/>
<feGaussianBlur stdDeviation="3"/>
<feComposite in2="hardAlpha" operator="out"/>
<feColorMatrix type="matrix" values="0 0 0 0 0 0 0 0 0 0 0 0 0 0 0 0 0 0 0.2 0"/>
<feBlend mode="normal" in2="BackgroundImageFix" result="effect1_dropShadow_128679_3627"/>
<feBlend mode="normal" in="SourceGraphic" in2="effect1_dropShadow_128679_3627" result="shape"/>
</filter>
<clipPath id="clip0_128679_3627">
<rect width="22" height="22" fill="white" transform="translate(14 14)"/>
</clipPath>
</defs>
</svg> -->


<svg width="38" height="38" viewBox="6 6 38 38" fill="none" xmlns="http://www.w3.org/2000/svg">
  <rect x="6" y="6" width="38" height="38" rx="19" fill="#6A26FD"/>
  <g clip-path="url(#clip0)">
    <path d="M30.1562 24.5625C30.1562 28.5 25 31.875 25 31.875C25 31.875 19.8438 28.5 19.8438 24.5625C19.8438 23.2198 20.387 21.9322 21.354 20.9828C22.321 20.0334 23.6325 19.5 25 19.5C26.3675 19.5 27.679 20.0334 28.646 20.9828C29.613 21.9322 30.1562 23.2198 30.1562 24.5625Z" fill="white" stroke="white" stroke-width="2" stroke-linecap="round" stroke-linejoin="round"/>
    <path d="M34.5086 21.3326C34.9253 21.1719 35.3965 21.3788 35.5261 21.8062C36.2323 24.1333 36.1493 26.6375 35.2764 28.9236C34.3071 31.4624 32.4323 33.5525 30.0135 34.7911C27.5946 36.0297 24.8028 36.329 22.1763 35.6314C19.5499 34.9338 17.2746 33.2887 15.789 31.0131C14.3035 28.7376 13.7129 25.9927 14.131 23.3075C14.5491 20.6223 15.9464 18.1869 18.0536 16.4708C20.1607 14.7547 22.8285 13.8793 25.5427 14.0134C27.9868 14.1341 30.3128 15.0657 32.1591 16.6485C32.4982 16.9392 32.498 17.4538 32.1832 17.7706C31.8684 18.0874 31.3584 18.086 31.0157 17.7996C29.4557 16.4963 27.5078 15.7298 25.4629 15.6288C23.1478 15.5145 20.8722 16.2611 19.0749 17.7249C17.2776 19.1887 16.0858 21.266 15.7291 23.5563C15.3725 25.8467 15.8763 28.188 17.1434 30.129C18.4105 32.07 20.3512 33.4732 22.5915 34.0682C24.8318 34.6632 27.2131 34.4079 29.2763 33.3514C31.3395 32.295 32.9386 30.5122 33.7654 28.3467C34.4957 26.434 34.5778 24.3423 34.0122 22.3898C33.888 21.9608 34.0919 21.4933 34.5086 21.3326Z" fill="white"/>
    <path d="M24.4886 21.8783C24.7094 21.4572 25.2906 21.4572 25.5114 21.8783L25.9564 22.727C26.0402 22.8868 26.1886 22.999 26.3606 23.0325L27.2742 23.2104C27.7274 23.2987 27.907 23.8737 27.5902 24.2222L26.9517 24.9247C26.8315 25.0569 26.7748 25.2384 26.7973 25.4189L26.9169 26.3776C26.9763 26.8532 26.506 27.2086 26.0894 27.0029L25.2498 26.5883C25.0917 26.5103 24.9083 26.5103 24.7502 26.5883L23.9106 27.0029C23.494 27.2086 23.0237 26.8532 23.0831 26.3776L23.2027 25.4189C23.2252 25.2384 23.1685 25.0569 23.0483 24.9247L22.4098 24.2222C22.093 23.8737 22.2726 23.2987 22.7258 23.2104L23.6394 23.0325C23.8114 22.999 23.9598 22.8868 24.0436 22.727L24.4886 21.8783Z" fill="#6A26FD"/>
  </g>
  <defs>
    <clipPath id="clip0">
      <rect width="22" height="22" fill="white" transform="translate(14 14)"/>
    </clipPath>
  </defs>
</svg>
