<svg width="12" height="12" viewBox="0 0 12 12" fill="none" xmlns="http://www.w3.org/2000/svg">
<path d="M4.93662 1.15013C5.30346 0.406959 6.3632 0.406958 6.73004 1.15013L7.66088 3.03592C7.80642 3.33077 8.08761 3.53523 8.41296 3.58278L10.4962 3.88728C11.3161 4.00712 11.6429 5.01496 11.0493 5.59312L9.54345 7.05984C9.30758 7.28958 9.19992 7.62071 9.25558 7.94524L9.61076 10.0161C9.75088 10.8331 8.89333 11.4561 8.1597 11.0702L6.29878 10.0916C6.0074 9.93837 5.65926 9.93837 5.36788 10.0916L3.50696 11.0702C2.77333 11.4561 1.91578 10.8331 2.0559 10.0161L2.41108 7.94524C2.46674 7.62071 2.35908 7.28958 2.12321 7.05984L0.617342 5.59312C0.0237489 5.01496 0.350533 4.00712 1.17045 3.88728L3.2537 3.58278C3.57905 3.53523 3.86024 3.33077 4.00578 3.03592L4.93662 1.15013Z" fill="white"/>
</svg>
