<svg width="28" height="28" viewBox="0 0 28 28" fill="none" xmlns="http://www.w3.org/2000/svg">
<g clip-path="url(#clip0_128429_14363)">
<path d="M14.5538 26.9589C14.5781 27.5268 14.1369 28.0109 13.5687 27.9934C11.6187 27.9333 9.69873 27.4661 7.93363 26.6174C5.85868 25.6198 4.0618 24.1258 2.70213 22.2679C1.34247 20.41 0.461998 18.2454 0.138709 15.9659C-0.184579 13.6864 0.0592953 11.3623 0.848729 9.19958C1.63816 7.03684 2.94879 5.10217 4.66452 3.56694C6.38024 2.03171 8.44811 0.943311 10.6849 0.398147C12.9218 -0.147017 15.2585 -0.132116 17.4882 0.441529C19.385 0.929513 21.1545 1.80902 22.6847 3.01926C23.1305 3.37188 23.1561 4.0263 22.7717 4.44504C22.3873 4.86379 21.7387 4.88764 21.2884 4.5407C20.0109 3.55634 18.5441 2.83873 16.9753 2.43511C15.0735 1.94582 13.0803 1.93311 11.1724 2.39811C9.26444 2.86312 7.50062 3.79148 6.03717 5.10098C4.57372 6.41047 3.4558 8.06067 2.78244 9.90541C2.10908 11.7501 1.90107 13.7325 2.17682 15.6768C2.45257 17.6211 3.20358 19.4675 4.36333 21.0522C5.52307 22.637 7.05575 23.9113 8.8256 24.7622C10.2855 25.4641 11.8696 25.8601 13.4809 25.9302C14.0488 25.9549 14.5295 26.391 14.5538 26.9589Z" fill="#999999"/>
<path d="M6.5625 9.625H11.8125" stroke="#999999" stroke-width="2" stroke-linecap="round"/>
<path d="M6.5625 14H9.5375" stroke="#999999" stroke-width="2" stroke-linecap="round"/>
<path d="M6.5625 18.375H9.5375" stroke="#999999" stroke-width="2" stroke-linecap="round"/>
<circle cx="21" cy="13.125" r="5.8" stroke="#999999" stroke-width="2.4"/>
<path d="M16.625 17.5V25.0444C16.625 25.8829 17.5949 26.3491 18.2497 25.8252L20.3753 24.1248C20.7405 23.8326 21.2595 23.8326 21.6247 24.1248L23.7503 25.8252C24.4051 26.3491 25.375 25.8829 25.375 25.0444V17.5" stroke="#999999" stroke-width="2.4"/>
<path d="M20.4305 10.4142C20.6763 9.94527 21.3237 9.94527 21.5695 10.4142L22.0651 11.3593C22.1584 11.5373 22.3237 11.6622 22.5152 11.6995L23.5326 11.8977C24.0373 11.996 24.2374 12.6363 23.8846 13.0244L23.1735 13.8067C23.0396 13.954 22.9765 14.1561 23.0016 14.3571L23.1348 15.4247C23.2008 15.9544 22.6771 16.3502 22.2132 16.1211L21.2782 15.6594C21.1021 15.5725 20.8979 15.5725 20.7218 15.6594L19.7868 16.1211C19.3229 16.3502 18.7992 15.9544 18.8652 15.4247L18.9984 14.3571C19.0235 14.1561 18.9604 13.954 18.8265 13.8067L18.1154 13.0244C17.7626 12.6363 17.9627 11.996 18.4674 11.8977L19.4848 11.6995C19.6763 11.6622 19.8416 11.5373 19.9349 11.3593L20.4305 10.4142Z" fill="#999999"/>
</g>
<defs>
<clipPath id="clip0_128429_14363">
<rect width="28" height="28" fill="white"/>
</clipPath>
</defs>
</svg>
