<svg width="29" height="28" viewBox="0 0 29 28" fill="none" xmlns="http://www.w3.org/2000/svg">
<g clip-path="url(#clip0_128429_14366)">
<circle cx="14.25" cy="14" r="14" fill="#FF3333"/>
<circle cx="22.5625" cy="20.5625" r="5.6875" fill="#212121"/>
<path fill-rule="evenodd" clip-rule="evenodd" d="M19.0625 20.5625C19.0625 20.0793 19.4241 19.6875 19.8702 19.6875H25.2548C25.7009 19.6875 26.0625 20.0793 26.0625 20.5625C26.0625 21.0457 25.7009 21.4375 25.2548 21.4375H19.8702C19.4241 21.4375 19.0625 21.0457 19.0625 20.5625Z" fill="white"/>
<path fill-rule="evenodd" clip-rule="evenodd" d="M22.5625 17.0625C23.0457 17.0625 23.4375 17.4241 23.4375 17.8702L23.4375 23.2548C23.4375 23.7009 23.0457 24.0625 22.5625 24.0625C22.0793 24.0625 21.6875 23.7009 21.6875 23.2548L21.6875 17.8702C21.6875 17.4241 22.0793 17.0625 22.5625 17.0625Z" fill="white"/>
<path fill-rule="evenodd" clip-rule="evenodd" d="M10.6369 14.1526C10.2398 13.7339 9.57849 13.714 9.15694 14.1092C8.73388 14.5058 8.71245 15.1703 9.10906 15.5933L9.87508 14.8752C9.10906 15.5933 9.10936 15.5937 9.10967 15.594L9.11031 15.5947L9.11171 15.5962L9.11499 15.5996L9.12343 15.6084C9.1299 15.6152 9.13803 15.6235 9.14783 15.6334C9.16742 15.6532 9.19367 15.6792 9.22645 15.7104C9.29197 15.7729 9.38391 15.8567 9.50127 15.9547C9.73542 16.1502 10.0741 16.4047 10.5091 16.6578C11.3785 17.1636 12.6533 17.6752 14.2501 17.6752C15.8469 17.6752 17.1217 17.1636 17.991 16.6578C18.426 16.4047 18.7647 16.1502 18.9989 15.9547C19.1162 15.8567 19.2082 15.7729 19.2737 15.7104C19.3065 15.6792 19.3327 15.6532 19.3523 15.6334C19.3621 15.6235 19.3703 15.6152 19.3767 15.6084L19.3852 15.5996L19.3884 15.5962L19.3898 15.5947L19.3905 15.594C19.3908 15.5937 19.3911 15.5933 18.6251 14.8752L19.3911 15.5933C19.7877 15.1703 19.7663 14.5058 19.3432 14.1092C18.9217 13.714 18.2604 13.7339 17.8633 14.1526C17.8633 14.1526 17.8633 14.1526 17.8633 14.1526C17.8626 14.1532 17.8614 14.1545 17.8596 14.1563C17.8539 14.1621 17.8422 14.1738 17.8248 14.1904C17.7899 14.2236 17.7323 14.2765 17.6531 14.3426C17.4942 14.4752 17.2518 14.6582 16.9349 14.8426C16.3003 15.2118 15.3877 15.5752 14.2501 15.5752C13.1125 15.5752 12.1998 15.2118 11.5652 14.8426C11.2483 14.6582 11.0059 14.4752 10.847 14.3426C10.7679 14.2765 10.7103 14.2236 10.6754 14.1904C10.658 14.1738 10.6463 14.1621 10.6405 14.1563C10.6387 14.1545 10.6375 14.1532 10.6369 14.1526C10.6369 14.1526 10.6369 14.1526 10.6369 14.1526ZM17.8596 14.1565L17.8596 14.1563L17.8596 14.1565Z" fill="white"/>
<path d="M11.1 8.925C11.1 9.5049 10.6299 9.975 10.05 9.975C9.4701 9.975 9 9.5049 9 8.925C9 8.3451 9.4701 7.875 10.05 7.875C10.6299 7.875 11.1 8.3451 11.1 8.925Z" fill="white"/>
<path d="M19.5001 8.925C19.5001 9.5049 19.03 9.975 18.4501 9.975C17.8702 9.975 17.4001 9.5049 17.4001 8.925C17.4001 8.3451 17.8702 7.875 18.4501 7.875C19.03 7.875 19.5001 8.3451 19.5001 8.925Z" fill="white"/>
</g>
<defs>
<clipPath id="clip0_128429_14366">
<rect width="28" height="28" fill="white" transform="translate(0.25)"/>
</clipPath>
</defs>
</svg>
