<svg width="28" height="28" viewBox="0 0 28 28" fill="none" xmlns="http://www.w3.org/2000/svg">
<g clip-path="url(#clip0_128429_14367)">
<path d="M20.5625 13.4432C20.5625 18.4545 14 22.75 14 22.75C14 22.75 7.4375 18.4545 7.4375 13.4432C7.4375 11.7343 8.1289 10.0955 9.35961 8.88716C10.5903 7.67883 12.2595 7 14 7C15.7405 7 17.4097 7.67883 18.6404 8.88716C19.8711 10.0955 20.5625 11.7343 20.5625 13.4432Z" stroke="#999999" stroke-width="2" stroke-linecap="round" stroke-linejoin="round"/>
<path d="M26.1018 9.33241C26.6322 9.12785 27.2319 9.39118 27.3969 9.93512C28.2957 12.8969 28.19 16.0841 27.0791 18.9937C25.8454 22.2249 23.4593 24.885 20.3808 26.4614C17.3022 28.0377 13.7491 28.4187 10.4063 27.5309C7.06346 26.6431 4.16762 24.5493 2.27693 21.6531C0.386244 18.7569 -0.365459 15.2634 0.166716 11.8459C0.698892 8.42837 2.47727 5.32882 5.15907 3.14468C7.84088 0.960532 11.2362 -0.153594 14.6907 0.0170498C17.8014 0.170711 20.7617 1.35634 23.1116 3.37081C23.5431 3.74078 23.5429 4.39573 23.1423 4.79896C22.7416 5.2022 22.0925 5.20038 21.6563 4.83591C19.6709 3.17707 17.1917 2.20161 14.5892 2.07305C11.6426 1.9275 8.74649 2.87781 6.45901 4.7408C4.17153 6.6038 2.65464 9.2476 2.20071 12.1626C1.74678 15.0776 2.38796 18.0575 4.00065 20.5278C5.61334 22.9981 8.08338 24.7841 10.9347 25.5414C13.786 26.2986 16.8166 25.9737 19.4426 24.6291C22.0685 23.2845 24.1037 21.0155 25.156 18.2594C26.0855 15.8251 26.1899 13.163 25.4701 10.6779C25.312 10.1319 25.5715 9.53696 26.1018 9.33241Z" fill="#999999"/>
<path d="M13.3491 10.0269C13.6301 9.49103 14.3699 9.49103 14.6509 10.0269L15.2173 11.1071C15.3239 11.3105 15.5128 11.4532 15.7317 11.4959L16.8944 11.7223C17.4712 11.8347 17.6998 12.5665 17.2967 13.0101L16.484 13.9041C16.331 14.0724 16.2588 14.3034 16.2875 14.5331L16.4397 15.7533C16.5152 16.3586 15.9167 16.8109 15.3866 16.5491L14.3179 16.0215C14.1167 15.9222 13.8833 15.9222 13.6821 16.0215L12.6134 16.5491C12.0833 16.8109 11.4848 16.3586 11.5603 15.7533L11.7125 14.5331C11.7412 14.3034 11.669 14.0724 11.516 13.9041L10.7033 13.0101C10.3002 12.5665 10.5288 11.8347 11.1056 11.7223L12.2683 11.4959C12.4872 11.4532 12.6761 11.3105 12.7827 11.1071L13.3491 10.0269Z" fill="#999999"/>
</g>
<defs>
<clipPath id="clip0_128429_14367">
<rect width="28" height="28" fill="white"/>
</clipPath>
</defs>
</svg>
