<svg width="29" height="28" viewBox="0 0 29 28" fill="none" xmlns="http://www.w3.org/2000/svg">
<g clip-path="url(#clip0_128429_14365)">
<path d="M26.6018 9.33241C27.1322 9.12785 27.7319 9.39118 27.8969 9.93513C28.7326 12.6893 28.7014 15.6434 27.7932 18.3921C26.7771 21.4676 24.726 24.0955 21.9895 25.8283C19.2529 27.561 16.0003 28.2913 12.7857 27.8946C9.57106 27.498 6.59343 25.999 4.36013 23.6531C2.12682 21.3072 0.776025 18.2595 0.53789 15.0293C0.299754 11.7991 1.18902 8.58625 3.05416 5.9382C4.9193 3.29014 7.64492 1.37072 10.7666 0.506975C13.5566 -0.264993 16.5087 -0.151009 19.2185 0.819079C19.7536 1.01067 19.9872 1.62258 19.7568 2.14224C19.5264 2.66191 18.9195 2.89186 18.3819 2.70706C16.1099 1.92602 13.6464 1.84601 11.3155 2.49094C8.65286 3.22768 6.32801 4.86488 4.73711 7.12357C3.14621 9.38227 2.3877 12.1227 2.59082 14.878C2.79395 17.6332 3.94613 20.2328 5.85106 22.2338C7.75598 24.2348 10.2958 25.5133 13.0377 25.8516C15.7797 26.1899 18.5541 25.567 20.8882 24.0891C23.2224 22.6111 24.9719 20.3696 25.8386 17.7463C26.5973 15.45 26.6385 12.9855 25.9701 10.6779C25.8119 10.1319 26.0715 9.53696 26.6018 9.33241Z" fill="#999999"/>
<path d="M22.1616 2.58942C22.4426 2.05353 23.1824 2.05353 23.4634 2.58942L24.0298 3.66961C24.1364 3.87298 24.3253 4.01572 24.5442 4.05835L25.7069 4.28483C26.2837 4.39718 26.5123 5.129 26.1092 5.57255L25.2965 6.46662C25.1435 6.63495 25.0713 6.8659 25.1 7.09562L25.2522 8.31578C25.3277 8.92111 24.7292 9.3734 24.1991 9.11164L23.1304 8.58401C22.9292 8.48467 22.6958 8.48467 22.4946 8.58401L21.4259 9.11164C20.8958 9.3734 20.2973 8.92111 20.3728 8.31578L20.525 7.09562C20.5537 6.8659 20.4815 6.63495 20.3285 6.46662L19.5158 5.57255C19.1127 5.129 19.3413 4.39718 19.9181 4.28483L21.0808 4.05835C21.2997 4.01572 21.4886 3.87298 21.5952 3.66961L22.1616 2.58942Z" fill="#999999"/>
<path d="M17.3072 9.72119C16.7324 9.73007 16.1702 9.88935 15.6773 10.1829C15.1844 10.4766 14.7783 10.8941 14.4999 11.3934C14.2215 10.8941 13.8154 10.4766 13.3225 10.1829C12.8296 9.88935 12.2674 9.73007 11.6926 9.72119C10.7764 9.76071 9.91315 10.1586 9.2915 10.828C8.66986 11.4973 8.34033 12.3838 8.37491 13.2936C8.37491 15.5976 10.8178 18.114 12.8666 19.8201C13.324 20.2017 13.9024 20.4109 14.4999 20.4109C15.0974 20.4109 15.6758 20.2017 16.1332 19.8201C18.1821 18.114 20.6249 15.5976 20.6249 13.2936C20.6595 12.3838 20.33 11.4973 19.7083 10.828C19.0867 10.1586 18.2234 9.76071 17.3072 9.72119Z" fill="#999999"/>
</g>
<defs>
<clipPath id="clip0_128429_14365">
<rect width="28" height="28" fill="white" transform="translate(0.5)"/>
</clipPath>
</defs>
</svg>
