<svg width="29" height="28" viewBox="0 0 29 28" fill="none" xmlns="http://www.w3.org/2000/svg">
<g clip-path="url(#clip0_128429_14364)">
<path d="M20.2455 25.749C20.4864 26.2639 20.2653 26.8804 19.7341 27.0828C17.2012 28.0478 14.4346 28.2593 11.7717 27.6795C8.77266 27.0266 6.07126 25.4062 4.08329 23.0676C2.09532 20.729 0.930961 17.802 0.769406 14.7369C0.607852 11.6718 1.45806 8.63856 3.18917 6.10397C4.92029 3.56939 7.43637 1.67394 10.3502 0.709335C13.264 -0.255271 16.4141 -0.235575 19.3157 0.765393C22.2172 1.76636 24.7094 3.69313 26.4087 6.24916C27.9175 8.51865 28.7269 11.1726 28.7495 13.883C28.7543 14.4514 28.2605 14.8816 27.6932 14.8446C27.126 14.8076 26.7008 14.3172 26.6889 13.7489C26.6414 11.4896 25.9533 9.28236 24.6944 7.38881C23.245 5.20861 21.1192 3.56515 18.6443 2.71136C16.1694 1.85757 13.4825 1.84077 10.9971 2.66354C8.51174 3.48632 6.36561 5.10307 4.88903 7.26497C3.41245 9.42688 2.68726 12.0141 2.82506 14.6285C2.96286 17.2429 3.95601 19.7396 5.65168 21.7343C7.34734 23.729 9.65154 25.1112 12.2097 25.6682C14.4314 26.1519 16.7378 25.9898 18.8595 25.2121C19.3932 25.0165 20.0047 25.2341 20.2455 25.749Z" fill="#999999"/>
<path d="M20 20.125H27" stroke="#999999" stroke-width="2.4" stroke-linecap="round"/>
<path d="M23.5 16.625L23.5 23.625" stroke="#999999" stroke-width="2.4" stroke-linecap="round"/>
<path d="M10.375 14.875C10.375 14.875 12.0156 16.625 14.75 16.625C17.4844 16.625 19.125 14.875 19.125 14.875" stroke="#999999" stroke-width="2.4" stroke-linecap="round" stroke-linejoin="round"/>
<circle cx="10.55" cy="8.925" r="1.05" fill="#999999"/>
<circle cx="18.9501" cy="8.925" r="1.05" fill="#999999"/>
</g>
<defs>
<clipPath id="clip0_128429_14364">
<rect width="28" height="28" fill="white" transform="translate(0.75)"/>
</clipPath>
</defs>
</svg>
